Coordinates
version=1
nRows=60
nColumns=12
inDegrees=yes

Units are S.I. units (second, meters, Newtons, ...)
Angles are in degrees

endheader
time	SC_y	SC_z	SC_x	AC_y	AC_z	AC_x	GH_y	GH_z	GH_yy	EL_x	PS_y
       0.0              -34.42          9.982           82.7          64.75         -16.77         -17.26         -15.72          42.93         -3.995          93.88          103.0
   0.01093              -34.42          9.984           82.7          64.75         -16.77         -17.26         -15.72          42.94          -3.98          93.88          103.0
   0.02186              -34.42          9.986          82.69          64.75         -16.77         -17.26         -15.72          42.94         -3.965          93.89          103.0
   0.03279              -34.42          9.988          82.69          64.74         -16.76         -17.26         -15.73          42.95         -3.948          93.89          103.0
   0.04372              -34.42          9.991          82.69          64.74         -16.76         -17.26         -15.73          42.95          -3.93           93.9          103.0
   0.05464              -34.42          9.993          82.68          64.74         -16.75         -17.26         -15.73          42.96         -3.911          93.91          103.0
   0.06557              -34.42          9.996          82.68          64.74         -16.75         -17.26         -15.73          42.96         -3.891          93.91          103.0
    0.0765              -34.42          9.999          82.68          64.74         -16.74         -17.26         -15.74          42.97          -3.87          93.92          103.0
   0.08743              -34.42           10.0          82.67          64.73         -16.74         -17.26         -15.74          42.97         -3.847          93.93          103.0
   0.09836              -34.42          10.01          82.67          64.73         -16.73         -17.26         -15.74          42.98         -3.822          93.94          103.0
    0.1093              -34.42          10.01          82.66          64.73         -16.72         -17.26         -15.75          42.99         -3.795          93.95          103.0
    0.1202              -34.42          10.01          82.66          64.72         -16.72         -17.26         -15.75          42.99         -3.767          93.96          103.0
    0.1311              -34.42          10.02          82.65          64.72         -16.71         -17.26         -15.76           43.0         -3.736          93.97          103.0
    0.1421              -34.42          10.02          82.65          64.72          -16.7         -17.26         -15.76          43.01         -3.703          93.98          103.0
     0.153              -34.42          10.03          82.64          64.71         -16.69         -17.26         -15.77          43.02         -3.667          93.99          103.0
    0.1639              -34.42          10.03          82.63          64.71         -16.68         -17.26         -15.77          43.03         -3.628          94.01          103.0
    0.1749              -34.42          10.04          82.63          64.71         -16.67         -17.26         -15.78          43.04         -3.585          94.02          103.0
    0.1858              -34.42          10.04          82.62           64.7         -16.66         -17.26         -15.78          43.05         -3.539          94.04          103.0
    0.1967              -34.42          10.05          82.61           64.7         -16.65         -17.26         -15.79          43.07         -3.489          94.05          103.0
    0.2076              -34.42          10.06           82.6          64.69         -16.63         -17.27          -15.8          43.08         -3.433          94.07          103.0
    0.2186              -34.42          10.07          82.59          64.68         -16.62         -17.27         -15.81           43.1         -3.373          94.09          103.0
    0.2295              -34.42          10.08          82.58          64.68          -16.6         -17.27         -15.81          43.12         -3.306          94.12          102.9
    0.2404              -34.42          10.09          82.56          64.67         -16.58         -17.27         -15.82          43.14         -3.232          94.14          102.9
    0.2514              -34.42           10.1          82.55          64.66         -16.56         -17.27         -15.84          43.16          -3.15          94.17          102.9
    0.2623              -34.42          10.11          82.53          64.65         -16.54         -17.27         -15.85          43.18         -3.059           94.2          102.9
    0.2732              -34.42          10.12          82.52          64.64         -16.51         -17.27         -15.86          43.21         -2.958          94.24          102.9
    0.2842              -34.42          10.14           82.5          64.63         -16.49         -17.28         -15.88          43.24         -2.844          94.28          102.9
    0.2951              -34.42          10.16          82.47          64.61         -16.45         -17.28          -15.9          43.27         -2.717          94.32          102.9
     0.306              -34.42          10.18          82.45           64.6         -16.42         -17.28         -15.92          43.31         -2.572          94.37          102.9
    0.3169              -34.42           10.2          82.42          64.58         -16.38         -17.28         -15.94          43.36         -2.408          94.43          102.9
    0.3279              -34.42          10.23          82.39          64.56         -16.33         -17.29         -15.96          43.41         -2.221          94.49          102.9
    0.3388              -34.42          10.26          82.35          64.54         -16.27         -17.29         -15.99          43.46         -2.006          94.57          102.9
    0.3497              -34.42          10.29           82.3          64.51         -16.21         -17.29         -16.03          43.53         -1.759          94.65          102.9
    0.3607              -34.43          10.33          82.25          64.48         -16.14          -17.3         -16.07          43.61          -1.47          94.75          102.9
    0.3716              -34.43          10.38           82.2          64.45         -16.06         -17.31         -16.11           43.7         -1.133          94.87          102.9
    0.3825              -34.43          10.43          82.13          64.41         -15.96         -17.31         -16.17           43.8         -0.736          95.01          102.8
    0.3934              -34.43           10.5          82.04          64.36         -15.84         -17.32         -16.23          43.93        -0.2638          95.17          102.8
    0.4044              -34.43          10.57          81.94           64.3         -15.69         -17.33         -16.31          44.08         0.3022          95.37          102.8
    0.4153              -34.43          10.67          81.82          64.23         -15.52         -17.34          -16.4          44.26          0.987          95.61          102.8
    0.4262              -34.44          10.78          81.68          64.14         -15.31         -17.36         -16.52          44.49          1.824           95.9          102.7
    0.4372              -34.44          10.92          81.49          64.03         -15.05         -17.38         -16.66          44.76          2.856          96.26          102.7
    0.4481              -34.44           11.1          81.27           63.9         -14.73          -17.4         -16.84          45.11          4.143           96.7          102.6
     0.459              -34.45          11.33          80.98          63.73         -14.32         -17.43         -17.06          45.54          5.765          97.27          102.6
    0.4699              -34.45          11.61          80.62          63.51          -13.8         -17.46         -17.34          46.09          7.827          97.98          102.5
    0.4809              -34.46          11.97          80.16          63.23         -13.14         -17.51          -17.7           46.8          10.47           98.9          102.4
    0.4918              -34.47          12.44          79.56          62.88         -12.29         -17.57         -18.17           47.7          13.85          100.1          102.2
    0.5027              -34.48          13.03           78.8          62.42          -11.2         -17.65         -18.76          48.86          18.18          101.6          102.0
    0.5137               -34.5          13.78          77.85          61.85          -9.83         -17.74         -19.51          50.31          23.62          103.5          101.8
    0.5246              -34.52           14.7          76.68          61.16         -8.162         -17.86         -20.41          52.09          30.25          105.8          101.5
    0.5355              -34.54          15.75          75.33          60.35          -6.23         -17.99         -21.47          54.14          37.93          108.4          101.2
    0.5464              -34.56           16.9          73.87          59.48         -4.137         -18.14         -22.61          56.36          46.25          111.3          100.8
    0.5574              -34.59          18.04          72.41          58.61         -2.045         -18.28         -23.75          58.59          54.57          114.2          100.5
    0.5683              -34.61           19.1          71.06           57.8        -0.1122         -18.42          -24.8          60.64          62.25          116.9          100.1
    0.5792              -34.63          20.01           69.9          57.11          1.555         -18.54         -25.71          62.41          68.88          119.2          99.84
    0.5902              -34.65          20.76          68.94          56.54          2.923         -18.63         -26.46          63.87          74.32          121.1           99.6
    0.6011              -34.66          21.36          68.18          56.08          4.011         -18.71         -27.05          65.02          78.64          122.6          99.42
     0.612              -34.67          21.82          67.59          55.73          4.863         -18.77         -27.51          65.93          82.03          123.7          99.27
    0.6229              -34.68          22.19          67.13          55.45          5.527         -18.81         -27.88          66.63          84.67          124.6          99.16
    0.6339              -34.68          22.47          66.76          55.24          6.045         -18.85         -28.16          67.19          86.73          125.4          99.07
    0.6448              -34.69          22.69          66.48          55.07          6.453         -18.88         -28.38          67.62          88.35          125.9           99.0
